<svg xmlns="http://www.w3.org/2000/svg" width="1200" height="1256" viewBox="0 0 1200 1256">
<rect width="100%" height="100%" fill="#F8FAFC"/>
<text x="48" y="34" font-family="Arial, sans-serif" font-size="24" font-weight="700" fill="#0F172A">FlowTrack QA Scan Sheet</text>
<text x="48" y="62" font-family="Arial, sans-serif" font-size="14" fill="#64748B">Load QA sample data in Settings, then scan these barcodes from Sales or Inventory.</text>
<rect x="48" y="86" width="520" height="170" rx="14" fill="#FFFFFF" stroke="#CBD5E1"/>
<text x="66" y="116" font-family="Arial, sans-serif" font-size="18" font-weight="700" fill="#0F172A">Lucky Me Pancit Canton Chilimansi</text>
<text x="66" y="140" font-family="Arial, sans-serif" font-size="13" fill="#64748B">4807770271137</text>
<svg x="66.0" y="158.0" width="330.0" height="64.0" viewBox="0.00000 0.00000 330.00000 64.00000" xmlns="http://www.w3.org/2000/svg"><path d="M 0.00000 0.00000 h 3.47368 v 64.00000 h -3.47368 z M 6.94737 0.00000 h 3.47368 v 64.00000 h -3.47368 z M 13.89474 0.00000 h 6.94737 v 64.00000 h -6.94737 z M 24.31579 0.00000 h 10.42105 v 64.00000 h -10.42105 z M 38.21053 0.00000 h 3.47368 v 64.00000 h -3.47368 z M 48.63158 0.00000 h 10.42105 v 64.00000 h -10.42105 z M 62.52632 0.00000 h 10.42105 v 64.00000 h -10.42105 z M 76.42105 0.00000 h 6.94737 v 64.00000 h -6.94737 z M 86.84211 0.00000 h 10.42105 v 64.00000 h -10.42105 z M 100.73684 0.00000 h 6.94737 v 64.00000 h -6.94737 z M 114.63158 0.00000 h 3.47368 v 64.00000 h -3.47368 z M 128.52632 0.00000 h 3.47368 v 64.00000 h -3.47368 z M 135.47368 0.00000 h 3.47368 v 64.00000 h -3.47368 z M 145.89474 0.00000 h 10.42105 v 64.00000 h -10.42105 z M 159.78947 0.00000 h 3.47368 v 64.00000 h -3.47368 z M 166.73684 0.00000 h 3.47368 v 64.00000 h -3.47368 z M 173.68421 0.00000 h 6.94737 v 64.00000 h -6.94737 z M 184.10526 0.00000 h 6.94737 v 64.00000 h -6.94737 z M 198.00000 0.00000 h 3.47368 v 64.00000 h -3.47368 z M 211.89474 0.00000 h 3.47368 v 64.00000 h -3.47368 z M 222.31579 0.00000 h 6.94737 v 64.00000 h -6.94737 z M 236.21053 0.00000 h 6.94737 v 64.00000 h -6.94737 z M 246.63158 0.00000 h 6.94737 v 64.00000 h -6.94737 z M 260.52632 0.00000 h 6.94737 v 64.00000 h -6.94737 z M 270.94737 0.00000 h 3.47368 v 64.00000 h -3.47368 z M 288.31579 0.00000 h 3.47368 v 64.00000 h -3.47368 z M 295.26316 0.00000 h 3.47368 v 64.00000 h -3.47368 z M 309.15789 0.00000 h 3.47368 v 64.00000 h -3.47368 z M 319.57895 0.00000 h 3.47368 v 64.00000 h -3.47368 z M 326.52632 0.00000 h 3.47368 v 64.00000 h -3.47368 z " style="fill: #0F172A"/><text style="fill: #000000; font-family: &quot;monospace&quot;; font-size: 12.80000px" x="0.00000" y="0.00000"></text></svg>
<text x="66.0" y="244.0" font-family="Arial, sans-serif" font-size="16" letter-spacing="2" fill="#0F172A">4807770271137</text>
<rect x="600" y="86" width="520" height="170" rx="14" fill="#FFFFFF" stroke="#CBD5E1"/>
<text x="618" y="116" font-family="Arial, sans-serif" font-size="18" font-weight="700" fill="#0F172A">555 Sardines Tomato Sauce</text>
<text x="618" y="140" font-family="Arial, sans-serif" font-size="13" fill="#64748B">4800110020303</text>
<svg x="618.0" y="158.0" width="330.0" height="64.0" viewBox="0.00000 0.00000 330.00000 64.00000" xmlns="http://www.w3.org/2000/svg"><path d="M 0.00000 0.00000 h 3.47368 v 64.00000 h -3.47368 z M 6.94737 0.00000 h 3.47368 v 64.00000 h -3.47368 z M 13.89474 0.00000 h 6.94737 v 64.00000 h -6.94737 z M 24.31579 0.00000 h 10.42105 v 64.00000 h -10.42105 z M 38.21053 0.00000 h 3.47368 v 64.00000 h -3.47368 z M 48.63158 0.00000 h 10.42105 v 64.00000 h -10.42105 z M 69.47368 0.00000 h 6.94737 v 64.00000 h -6.94737 z M 79.89474 0.00000 h 3.47368 v 64.00000 h -3.47368 z M 90.31579 0.00000 h 6.94737 v 64.00000 h -6.94737 z M 104.21053 0.00000 h 3.47368 v 64.00000 h -3.47368 z M 111.15789 0.00000 h 6.94737 v 64.00000 h -6.94737 z M 125.05263 0.00000 h 6.94737 v 64.00000 h -6.94737 z M 135.47368 0.00000 h 3.47368 v 64.00000 h -3.47368 z M 145.89474 0.00000 h 10.42105 v 64.00000 h -10.42105 z M 159.78947 0.00000 h 3.47368 v 64.00000 h -3.47368 z M 166.73684 0.00000 h 3.47368 v 64.00000 h -3.47368 z M 173.68421 0.00000 h 10.42105 v 64.00000 h -10.42105 z M 191.05263 0.00000 h 3.47368 v 64.00000 h -3.47368 z M 198.00000 0.00000 h 6.94737 v 64.00000 h -6.94737 z M 208.42105 0.00000 h 6.94737 v 64.00000 h -6.94737 z M 222.31579 0.00000 h 10.42105 v 64.00000 h -10.42105 z M 239.68421 0.00000 h 3.47368 v 64.00000 h -3.47368 z M 246.63158 0.00000 h 3.47368 v 64.00000 h -3.47368 z M 264.00000 0.00000 h 3.47368 v 64.00000 h -3.47368 z M 270.94737 0.00000 h 10.42105 v 64.00000 h -10.42105 z M 288.31579 0.00000 h 3.47368 v 64.00000 h -3.47368 z M 295.26316 0.00000 h 3.47368 v 64.00000 h -3.47368 z M 312.63158 0.00000 h 3.47368 v 64.00000 h -3.47368 z M 319.57895 0.00000 h 3.47368 v 64.00000 h -3.47368 z M 326.52632 0.00000 h 3.47368 v 64.00000 h -3.47368 z " style="fill: #0F172A"/><text style="fill: #000000; font-family: &quot;monospace&quot;; font-size: 12.80000px" x="0.00000" y="0.00000"></text></svg>
<text x="618.0" y="244.0" font-family="Arial, sans-serif" font-size="16" letter-spacing="2" fill="#0F172A">4800110020303</text>
<rect x="48" y="284" width="520" height="170" rx="14" fill="#FFFFFF" stroke="#CBD5E1"/>
<text x="66" y="314" font-family="Arial, sans-serif" font-size="18" font-weight="700" fill="#0F172A">Nescafe Original Stick</text>
<text x="66" y="338" font-family="Arial, sans-serif" font-size="13" fill="#64748B">4800361417402</text>
<svg x="66.0" y="356.0" width="330.0" height="64.0" viewBox="0.00000 0.00000 330.00000 64.00000" xmlns="http://www.w3.org/2000/svg"><path d="M 0.00000 0.00000 h 3.47368 v 64.00000 h -3.47368 z M 6.94737 0.00000 h 3.47368 v 64.00000 h -3.47368 z M 13.89474 0.00000 h 6.94737 v 64.00000 h -6.94737 z M 24.31579 0.00000 h 10.42105 v 64.00000 h -10.42105 z M 38.21053 0.00000 h 3.47368 v 64.00000 h -3.47368 z M 48.63158 0.00000 h 10.42105 v 64.00000 h -10.42105 z M 69.47368 0.00000 h 6.94737 v 64.00000 h -6.94737 z M 79.89474 0.00000 h 3.47368 v 64.00000 h -3.47368 z M 86.84211 0.00000 h 13.89474 v 64.00000 h -13.89474 z M 104.21053 0.00000 h 3.47368 v 64.00000 h -3.47368 z M 121.57895 0.00000 h 3.47368 v 64.00000 h -3.47368 z M 128.52632 0.00000 h 3.47368 v 64.00000 h -3.47368 z M 135.47368 0.00000 h 6.94737 v 64.00000 h -6.94737 z M 149.36842 0.00000 h 6.94737 v 64.00000 h -6.94737 z M 159.78947 0.00000 h 3.47368 v 64.00000 h -3.47368 z M 166.73684 0.00000 h 3.47368 v 64.00000 h -3.47368 z M 173.68421 0.00000 h 3.47368 v 64.00000 h -3.47368 z M 180.63158 0.00000 h 10.42105 v 64.00000 h -10.42105 z M 198.00000 0.00000 h 6.94737 v 64.00000 h -6.94737 z M 211.89474 0.00000 h 6.94737 v 64.00000 h -6.94737 z M 222.31579 0.00000 h 3.47368 v 64.00000 h -3.47368 z M 236.21053 0.00000 h 3.47368 v 64.00000 h -3.47368 z M 246.63158 0.00000 h 3.47368 v 64.00000 h -3.47368 z M 253.57895 0.00000 h 10.42105 v 64.00000 h -10.42105 z M 270.94737 0.00000 h 10.42105 v 64.00000 h -10.42105 z M 288.31579 0.00000 h 3.47368 v 64.00000 h -3.47368 z M 295.26316 0.00000 h 6.94737 v 64.00000 h -6.94737 z M 305.68421 0.00000 h 6.94737 v 64.00000 h -6.94737 z M 319.57895 0.00000 h 3.47368 v 64.00000 h -3.47368 z M 326.52632 0.00000 h 3.47368 v 64.00000 h -3.47368 z " style="fill: #0F172A"/><text style="fill: #000000; font-family: &quot;monospace&quot;; font-size: 12.80000px" x="0.00000" y="0.00000"></text></svg>
<text x="66.0" y="442.0" font-family="Arial, sans-serif" font-size="16" letter-spacing="2" fill="#0F172A">4800361417402</text>
<rect x="600" y="284" width="520" height="170" rx="14" fill="#FFFFFF" stroke="#CBD5E1"/>
<text x="618" y="314" font-family="Arial, sans-serif" font-size="18" font-weight="700" fill="#0F172A">Great Taste White Sachet</text>
<text x="618" y="338" font-family="Arial, sans-serif" font-size="13" fill="#64748B">4800016112300</text>
<svg x="618.0" y="356.0" width="330.0" height="64.0" viewBox="0.00000 0.00000 330.00000 64.00000" xmlns="http://www.w3.org/2000/svg"><path d="M 0.00000 0.00000 h 3.47368 v 64.00000 h -3.47368 z M 6.94737 0.00000 h 3.47368 v 64.00000 h -3.47368 z M 13.89474 0.00000 h 6.94737 v 64.00000 h -6.94737 z M 24.31579 0.00000 h 10.42105 v 64.00000 h -10.42105 z M 38.21053 0.00000 h 3.47368 v 64.00000 h -3.47368 z M 48.63158 0.00000 h 10.42105 v 64.00000 h -10.42105 z M 69.47368 0.00000 h 6.94737 v 64.00000 h -6.94737 z M 79.89474 0.00000 h 3.47368 v 64.00000 h -3.47368 z M 93.78947 0.00000 h 6.94737 v 64.00000 h -6.94737 z M 104.21053 0.00000 h 3.47368 v 64.00000 h -3.47368 z M 111.15789 0.00000 h 6.94737 v 64.00000 h -6.94737 z M 125.05263 0.00000 h 6.94737 v 64.00000 h -6.94737 z M 145.89474 0.00000 h 3.47368 v 64.00000 h -3.47368 z M 152.84211 0.00000 h 3.47368 v 64.00000 h -3.47368 z M 159.78947 0.00000 h 3.47368 v 64.00000 h -3.47368 z M 166.73684 0.00000 h 3.47368 v 64.00000 h -3.47368 z M 173.68421 0.00000 h 6.94737 v 64.00000 h -6.94737 z M 187.57895 0.00000 h 6.94737 v 64.00000 h -6.94737 z M 198.00000 0.00000 h 6.94737 v 64.00000 h -6.94737 z M 211.89474 0.00000 h 6.94737 v 64.00000 h -6.94737 z M 222.31579 0.00000 h 6.94737 v 64.00000 h -6.94737 z M 232.73684 0.00000 h 6.94737 v 64.00000 h -6.94737 z M 246.63158 0.00000 h 3.47368 v 64.00000 h -3.47368 z M 264.00000 0.00000 h 3.47368 v 64.00000 h -3.47368 z M 270.94737 0.00000 h 10.42105 v 64.00000 h -10.42105 z M 288.31579 0.00000 h 3.47368 v 64.00000 h -3.47368 z M 295.26316 0.00000 h 10.42105 v 64.00000 h -10.42105 z M 312.63158 0.00000 h 3.47368 v 64.00000 h -3.47368 z M 319.57895 0.00000 h 3.47368 v 64.00000 h -3.47368 z M 326.52632 0.00000 h 3.47368 v 64.00000 h -3.47368 z " style="fill: #0F172A"/><text style="fill: #000000; font-family: &quot;monospace&quot;; font-size: 12.80000px" x="0.00000" y="0.00000"></text></svg>
<text x="618.0" y="442.0" font-family="Arial, sans-serif" font-size="16" letter-spacing="2" fill="#0F172A">4800016112300</text>
<rect x="48" y="482" width="520" height="170" rx="14" fill="#FFFFFF" stroke="#CBD5E1"/>
<text x="66" y="512" font-family="Arial, sans-serif" font-size="18" font-weight="700" fill="#0F172A">SkyFlakes Crackers</text>
<text x="66" y="536" font-family="Arial, sans-serif" font-size="13" fill="#64748B">4800016640704</text>
<svg x="66.0" y="554.0" width="330.0" height="64.0" viewBox="0.00000 0.00000 330.00000 64.00000" xmlns="http://www.w3.org/2000/svg"><path d="M 0.00000 0.00000 h 3.47368 v 64.00000 h -3.47368 z M 6.94737 0.00000 h 3.47368 v 64.00000 h -3.47368 z M 13.89474 0.00000 h 6.94737 v 64.00000 h -6.94737 z M 24.31579 0.00000 h 10.42105 v 64.00000 h -10.42105 z M 38.21053 0.00000 h 3.47368 v 64.00000 h -3.47368 z M 48.63158 0.00000 h 10.42105 v 64.00000 h -10.42105 z M 69.47368 0.00000 h 6.94737 v 64.00000 h -6.94737 z M 79.89474 0.00000 h 3.47368 v 64.00000 h -3.47368 z M 93.78947 0.00000 h 6.94737 v 64.00000 h -6.94737 z M 104.21053 0.00000 h 3.47368 v 64.00000 h -3.47368 z M 111.15789 0.00000 h 6.94737 v 64.00000 h -6.94737 z M 125.05263 0.00000 h 6.94737 v 64.00000 h -6.94737 z M 145.89474 0.00000 h 3.47368 v 64.00000 h -3.47368 z M 152.84211 0.00000 h 3.47368 v 64.00000 h -3.47368 z M 159.78947 0.00000 h 3.47368 v 64.00000 h -3.47368 z M 166.73684 0.00000 h 3.47368 v 64.00000 h -3.47368 z M 173.68421 0.00000 h 3.47368 v 64.00000 h -3.47368 z M 180.63158 0.00000 h 3.47368 v 64.00000 h -3.47368 z M 198.00000 0.00000 h 3.47368 v 64.00000 h -3.47368 z M 204.94737 0.00000 h 10.42105 v 64.00000 h -10.42105 z M 222.31579 0.00000 h 10.42105 v 64.00000 h -10.42105 z M 239.68421 0.00000 h 3.47368 v 64.00000 h -3.47368 z M 246.63158 0.00000 h 3.47368 v 64.00000 h -3.47368 z M 260.52632 0.00000 h 3.47368 v 64.00000 h -3.47368 z M 270.94737 0.00000 h 10.42105 v 64.00000 h -10.42105 z M 288.31579 0.00000 h 3.47368 v 64.00000 h -3.47368 z M 295.26316 0.00000 h 3.47368 v 64.00000 h -3.47368 z M 302.21053 0.00000 h 10.42105 v 64.00000 h -10.42105 z M 319.57895 0.00000 h 3.47368 v 64.00000 h -3.47368 z M 326.52632 0.00000 h 3.47368 v 64.00000 h -3.47368 z " style="fill: #0F172A"/><text style="fill: #000000; font-family: &quot;monospace&quot;; font-size: 12.80000px" x="0.00000" y="0.00000"></text></svg>
<text x="66.0" y="640.0" font-family="Arial, sans-serif" font-size="16" letter-spacing="2" fill="#0F172A">4800016640704</text>
<rect x="600" y="482" width="520" height="170" rx="14" fill="#FFFFFF" stroke="#CBD5E1"/>
<text x="618" y="512" font-family="Arial, sans-serif" font-size="18" font-weight="700" fill="#0F172A">C2 Green Tea Apple 230ml</text>
<text x="618" y="536" font-family="Arial, sans-serif" font-size="13" fill="#64748B">4804888801232</text>
<svg x="618.0" y="554.0" width="330.0" height="64.0" viewBox="0.00000 0.00000 330.00000 64.00000" xmlns="http://www.w3.org/2000/svg"><path d="M 0.00000 0.00000 h 3.47368 v 64.00000 h -3.47368 z M 6.94737 0.00000 h 3.47368 v 64.00000 h -3.47368 z M 13.89474 0.00000 h 6.94737 v 64.00000 h -6.94737 z M 24.31579 0.00000 h 10.42105 v 64.00000 h -10.42105 z M 38.21053 0.00000 h 3.47368 v 64.00000 h -3.47368 z M 48.63158 0.00000 h 10.42105 v 64.00000 h -10.42105 z M 62.52632 0.00000 h 3.47368 v 64.00000 h -3.47368 z M 76.42105 0.00000 h 6.94737 v 64.00000 h -6.94737 z M 86.84211 0.00000 h 6.94737 v 64.00000 h -6.94737 z M 97.26316 0.00000 h 10.42105 v 64.00000 h -10.42105 z M 118.10526 0.00000 h 3.47368 v 64.00000 h -3.47368 z M 128.52632 0.00000 h 3.47368 v 64.00000 h -3.47368 z M 142.42105 0.00000 h 3.47368 v 64.00000 h -3.47368 z M 152.84211 0.00000 h 3.47368 v 64.00000 h -3.47368 z M 159.78947 0.00000 h 3.47368 v 64.00000 h -3.47368 z M 166.73684 0.00000 h 3.47368 v 64.00000 h -3.47368 z M 173.68421 0.00000 h 3.47368 v 64.00000 h -3.47368 z M 184.10526 0.00000 h 3.47368 v 64.00000 h -3.47368 z M 198.00000 0.00000 h 10.42105 v 64.00000 h -10.42105 z M 215.36842 0.00000 h 3.47368 v 64.00000 h -3.47368 z M 222.31579 0.00000 h 6.94737 v 64.00000 h -6.94737 z M 236.21053 0.00000 h 6.94737 v 64.00000 h -6.94737 z M 246.63158 0.00000 h 6.94737 v 64.00000 h -6.94737 z M 257.05263 0.00000 h 6.94737 v 64.00000 h -6.94737 z M 270.94737 0.00000 h 3.47368 v 64.00000 h -3.47368 z M 288.31579 0.00000 h 3.47368 v 64.00000 h -3.47368 z M 295.26316 0.00000 h 6.94737 v 64.00000 h -6.94737 z M 305.68421 0.00000 h 6.94737 v 64.00000 h -6.94737 z M 319.57895 0.00000 h 3.47368 v 64.00000 h -3.47368 z M 326.52632 0.00000 h 3.47368 v 64.00000 h -3.47368 z " style="fill: #0F172A"/><text style="fill: #000000; font-family: &quot;monospace&quot;; font-size: 12.80000px" x="0.00000" y="0.00000"></text></svg>
<text x="618.0" y="640.0" font-family="Arial, sans-serif" font-size="16" letter-spacing="2" fill="#0F172A">4804888801232</text>
<rect x="48" y="680" width="520" height="170" rx="14" fill="#FFFFFF" stroke="#CBD5E1"/>
<text x="66" y="710" font-family="Arial, sans-serif" font-size="18" font-weight="700" fill="#0F172A">Safeguard White Bar 60g</text>
<text x="66" y="734" font-family="Arial, sans-serif" font-size="13" fill="#64748B">4800888206015</text>
<svg x="66.0" y="752.0" width="330.0" height="64.0" viewBox="0.00000 0.00000 330.00000 64.00000" xmlns="http://www.w3.org/2000/svg"><path d="M 0.00000 0.00000 h 3.47368 v 64.00000 h -3.47368 z M 6.94737 0.00000 h 3.47368 v 64.00000 h -3.47368 z M 13.89474 0.00000 h 6.94737 v 64.00000 h -6.94737 z M 24.31579 0.00000 h 10.42105 v 64.00000 h -10.42105 z M 38.21053 0.00000 h 3.47368 v 64.00000 h -3.47368 z M 48.63158 0.00000 h 10.42105 v 64.00000 h -10.42105 z M 69.47368 0.00000 h 6.94737 v 64.00000 h -6.94737 z M 79.89474 0.00000 h 3.47368 v 64.00000 h -3.47368 z M 86.84211 0.00000 h 6.94737 v 64.00000 h -6.94737 z M 97.26316 0.00000 h 10.42105 v 64.00000 h -10.42105 z M 118.10526 0.00000 h 3.47368 v 64.00000 h -3.47368 z M 128.52632 0.00000 h 3.47368 v 64.00000 h -3.47368 z M 142.42105 0.00000 h 3.47368 v 64.00000 h -3.47368 z M 152.84211 0.00000 h 3.47368 v 64.00000 h -3.47368 z M 159.78947 0.00000 h 3.47368 v 64.00000 h -3.47368 z M 166.73684 0.00000 h 3.47368 v 64.00000 h -3.47368 z M 173.68421 0.00000 h 6.94737 v 64.00000 h -6.94737 z M 184.10526 0.00000 h 6.94737 v 64.00000 h -6.94737 z M 198.00000 0.00000 h 10.42105 v 64.00000 h -10.42105 z M 215.36842 0.00000 h 3.47368 v 64.00000 h -3.47368 z M 222.31579 0.00000 h 3.47368 v 64.00000 h -3.47368 z M 229.26316 0.00000 h 3.47368 v 64.00000 h -3.47368 z M 246.63158 0.00000 h 10.42105 v 64.00000 h -10.42105 z M 264.00000 0.00000 h 3.47368 v 64.00000 h -3.47368 z M 270.94737 0.00000 h 6.94737 v 64.00000 h -6.94737 z M 284.84211 0.00000 h 6.94737 v 64.00000 h -6.94737 z M 295.26316 0.00000 h 3.47368 v 64.00000 h -3.47368 z M 305.68421 0.00000 h 10.42105 v 64.00000 h -10.42105 z M 319.57895 0.00000 h 3.47368 v 64.00000 h -3.47368 z M 326.52632 0.00000 h 3.47368 v 64.00000 h -3.47368 z " style="fill: #0F172A"/><text style="fill: #000000; font-family: &quot;monospace&quot;; font-size: 12.80000px" x="0.00000" y="0.00000"></text></svg>
<text x="66.0" y="838.0" font-family="Arial, sans-serif" font-size="16" letter-spacing="2" fill="#0F172A">4800888206015</text>
<rect x="600" y="680" width="520" height="170" rx="14" fill="#FFFFFF" stroke="#CBD5E1"/>
<text x="618" y="710" font-family="Arial, sans-serif" font-size="18" font-weight="700" fill="#0F172A">Piattos Cheese 40g</text>
<text x="618" y="734" font-family="Arial, sans-serif" font-size="13" fill="#64748B">4800016060212</text>
<svg x="618.0" y="752.0" width="330.0" height="64.0" viewBox="0.00000 0.00000 330.00000 64.00000" xmlns="http://www.w3.org/2000/svg"><path d="M 0.00000 0.00000 h 3.47368 v 64.00000 h -3.47368 z M 6.94737 0.00000 h 3.47368 v 64.00000 h -3.47368 z M 13.89474 0.00000 h 6.94737 v 64.00000 h -6.94737 z M 24.31579 0.00000 h 10.42105 v 64.00000 h -10.42105 z M 38.21053 0.00000 h 3.47368 v 64.00000 h -3.47368 z M 48.63158 0.00000 h 10.42105 v 64.00000 h -10.42105 z M 69.47368 0.00000 h 6.94737 v 64.00000 h -6.94737 z M 79.89474 0.00000 h 3.47368 v 64.00000 h -3.47368 z M 93.78947 0.00000 h 6.94737 v 64.00000 h -6.94737 z M 104.21053 0.00000 h 3.47368 v 64.00000 h -3.47368 z M 111.15789 0.00000 h 6.94737 v 64.00000 h -6.94737 z M 125.05263 0.00000 h 6.94737 v 64.00000 h -6.94737 z M 145.89474 0.00000 h 3.47368 v 64.00000 h -3.47368 z M 152.84211 0.00000 h 3.47368 v 64.00000 h -3.47368 z M 159.78947 0.00000 h 3.47368 v 64.00000 h -3.47368 z M 166.73684 0.00000 h 3.47368 v 64.00000 h -3.47368 z M 173.68421 0.00000 h 10.42105 v 64.00000 h -10.42105 z M 191.05263 0.00000 h 3.47368 v 64.00000 h -3.47368 z M 198.00000 0.00000 h 3.47368 v 64.00000 h -3.47368 z M 204.94737 0.00000 h 3.47368 v 64.00000 h -3.47368 z M 222.31579 0.00000 h 10.42105 v 64.00000 h -10.42105 z M 239.68421 0.00000 h 3.47368 v 64.00000 h -3.47368 z M 246.63158 0.00000 h 6.94737 v 64.00000 h -6.94737 z M 257.05263 0.00000 h 6.94737 v 64.00000 h -6.94737 z M 270.94737 0.00000 h 6.94737 v 64.00000 h -6.94737 z M 284.84211 0.00000 h 6.94737 v 64.00000 h -6.94737 z M 295.26316 0.00000 h 6.94737 v 64.00000 h -6.94737 z M 305.68421 0.00000 h 6.94737 v 64.00000 h -6.94737 z M 319.57895 0.00000 h 3.47368 v 64.00000 h -3.47368 z M 326.52632 0.00000 h 3.47368 v 64.00000 h -3.47368 z " style="fill: #0F172A"/><text style="fill: #000000; font-family: &quot;monospace&quot;; font-size: 12.80000px" x="0.00000" y="0.00000"></text></svg>
<text x="618.0" y="838.0" font-family="Arial, sans-serif" font-size="16" letter-spacing="2" fill="#0F172A">4800016060212</text>
<rect x="48" y="878" width="520" height="170" rx="14" fill="#FFFFFF" stroke="#CBD5E1"/>
<text x="66" y="908" font-family="Arial, sans-serif" font-size="18" font-weight="700" fill="#0F172A">Coke Sakto 200ml</text>
<text x="66" y="932" font-family="Arial, sans-serif" font-size="13" fill="#64748B">4801981111114</text>
<svg x="66.0" y="950.0" width="330.0" height="64.0" viewBox="0.00000 0.00000 330.00000 64.00000" xmlns="http://www.w3.org/2000/svg"><path d="M 0.00000 0.00000 h 3.47368 v 64.00000 h -3.47368 z M 6.94737 0.00000 h 3.47368 v 64.00000 h -3.47368 z M 13.89474 0.00000 h 6.94737 v 64.00000 h -6.94737 z M 24.31579 0.00000 h 10.42105 v 64.00000 h -10.42105 z M 38.21053 0.00000 h 3.47368 v 64.00000 h -3.47368 z M 48.63158 0.00000 h 10.42105 v 64.00000 h -10.42105 z M 66.00000 0.00000 h 6.94737 v 64.00000 h -6.94737 z M 79.89474 0.00000 h 3.47368 v 64.00000 h -3.47368 z M 93.78947 0.00000 h 3.47368 v 64.00000 h -3.47368 z M 100.73684 0.00000 h 6.94737 v 64.00000 h -6.94737 z M 118.10526 0.00000 h 3.47368 v 64.00000 h -3.47368 z M 128.52632 0.00000 h 3.47368 v 64.00000 h -3.47368 z M 135.47368 0.00000 h 6.94737 v 64.00000 h -6.94737 z M 149.36842 0.00000 h 6.94737 v 64.00000 h -6.94737 z M 159.78947 0.00000 h 3.47368 v 64.00000 h -3.47368 z M 166.73684 0.00000 h 3.47368 v 64.00000 h -3.47368 z M 173.68421 0.00000 h 6.94737 v 64.00000 h -6.94737 z M 187.57895 0.00000 h 6.94737 v 64.00000 h -6.94737 z M 198.00000 0.00000 h 6.94737 v 64.00000 h -6.94737 z M 211.89474 0.00000 h 6.94737 v 64.00000 h -6.94737 z M 222.31579 0.00000 h 6.94737 v 64.00000 h -6.94737 z M 236.21053 0.00000 h 6.94737 v 64.00000 h -6.94737 z M 246.63158 0.00000 h 6.94737 v 64.00000 h -6.94737 z M 260.52632 0.00000 h 6.94737 v 64.00000 h -6.94737 z M 270.94737 0.00000 h 6.94737 v 64.00000 h -6.94737 z M 284.84211 0.00000 h 6.94737 v 64.00000 h -6.94737 z M 295.26316 0.00000 h 3.47368 v 64.00000 h -3.47368 z M 302.21053 0.00000 h 10.42105 v 64.00000 h -10.42105 z M 319.57895 0.00000 h 3.47368 v 64.00000 h -3.47368 z M 326.52632 0.00000 h 3.47368 v 64.00000 h -3.47368 z " style="fill: #0F172A"/><text style="fill: #000000; font-family: &quot;monospace&quot;; font-size: 12.80000px" x="0.00000" y="0.00000"></text></svg>
<text x="66.0" y="1036.0" font-family="Arial, sans-serif" font-size="16" letter-spacing="2" fill="#0F172A">4801981111114</text>
<rect x="600" y="878" width="520" height="170" rx="14" fill="#FFFFFF" stroke="#CBD5E1"/>
<text x="618" y="908" font-family="Arial, sans-serif" font-size="18" font-weight="700" fill="#0F172A">Asukal Tingi 1/4 kilo</text>
<text x="618" y="932" font-family="Arial, sans-serif" font-size="13" fill="#64748B">FT-TINGI-ASUKAL</text>
<svg x="618.0" y="950.0" width="330.0" height="64.0" viewBox="0.00000 0.00000 330.00000 64.00000" xmlns="http://www.w3.org/2000/svg"><path d="M 0.00000 0.00000 h 3.30000 v 64.00000 h -3.30000 z M 4.95000 0.00000 h 1.65000 v 64.00000 h -1.65000 z M 13.20000 0.00000 h 1.65000 v 64.00000 h -1.65000 z M 18.15000 0.00000 h 1.65000 v 64.00000 h -1.65000 z M 24.75000 0.00000 h 3.30000 v 64.00000 h -3.30000 z M 33.00000 0.00000 h 1.65000 v 64.00000 h -1.65000 z M 36.30000 0.00000 h 3.30000 v 64.00000 h -3.30000 z M 41.25000 0.00000 h 4.95000 v 64.00000 h -4.95000 z M 51.15000 0.00000 h 1.65000 v 64.00000 h -1.65000 z M 54.45000 0.00000 h 1.65000 v 64.00000 h -1.65000 z M 59.40000 0.00000 h 3.30000 v 64.00000 h -3.30000 z M 64.35000 0.00000 h 4.95000 v 64.00000 h -4.95000 z M 72.60000 0.00000 h 3.30000 v 64.00000 h -3.30000 z M 77.55000 0.00000 h 4.95000 v 64.00000 h -4.95000 z M 87.45000 0.00000 h 1.65000 v 64.00000 h -1.65000 z M 90.75000 0.00000 h 3.30000 v 64.00000 h -3.30000 z M 99.00000 0.00000 h 1.65000 v 64.00000 h -1.65000 z M 105.60000 0.00000 h 1.65000 v 64.00000 h -1.65000 z M 108.90000 0.00000 h 1.65000 v 64.00000 h -1.65000 z M 112.20000 0.00000 h 4.95000 v 64.00000 h -4.95000 z M 122.10000 0.00000 h 3.30000 v 64.00000 h -3.30000 z M 127.05000 0.00000 h 3.30000 v 64.00000 h -3.30000 z M 132.00000 0.00000 h 1.65000 v 64.00000 h -1.65000 z M 138.60000 0.00000 h 1.65000 v 64.00000 h -1.65000 z M 145.20000 0.00000 h 3.30000 v 64.00000 h -3.30000 z M 153.45000 0.00000 h 1.65000 v 64.00000 h -1.65000 z M 160.05000 0.00000 h 1.65000 v 64.00000 h -1.65000 z M 163.35000 0.00000 h 1.65000 v 64.00000 h -1.65000 z M 168.30000 0.00000 h 3.30000 v 64.00000 h -3.30000 z M 173.25000 0.00000 h 4.95000 v 64.00000 h -4.95000 z M 181.50000 0.00000 h 1.65000 v 64.00000 h -1.65000 z M 184.80000 0.00000 h 1.65000 v 64.00000 h -1.65000 z M 191.40000 0.00000 h 3.30000 v 64.00000 h -3.30000 z M 199.65000 0.00000 h 3.30000 v 64.00000 h -3.30000 z M 204.60000 0.00000 h 4.95000 v 64.00000 h -4.95000 z M 211.20000 0.00000 h 1.65000 v 64.00000 h -1.65000 z M 217.80000 0.00000 h 3.30000 v 64.00000 h -3.30000 z M 222.75000 0.00000 h 4.95000 v 64.00000 h -4.95000 z M 229.35000 0.00000 h 4.95000 v 64.00000 h -4.95000 z M 235.95000 0.00000 h 1.65000 v 64.00000 h -1.65000 z M 239.25000 0.00000 h 3.30000 v 64.00000 h -3.30000 z M 247.50000 0.00000 h 4.95000 v 64.00000 h -4.95000 z M 254.10000 0.00000 h 1.65000 v 64.00000 h -1.65000 z M 257.40000 0.00000 h 1.65000 v 64.00000 h -1.65000 z M 264.00000 0.00000 h 3.30000 v 64.00000 h -3.30000 z M 272.25000 0.00000 h 1.65000 v 64.00000 h -1.65000 z M 278.85000 0.00000 h 3.30000 v 64.00000 h -3.30000 z M 283.80000 0.00000 h 4.95000 v 64.00000 h -4.95000 z M 290.40000 0.00000 h 4.95000 v 64.00000 h -4.95000 z M 297.00000 0.00000 h 3.30000 v 64.00000 h -3.30000 z M 305.25000 0.00000 h 1.65000 v 64.00000 h -1.65000 z M 308.55000 0.00000 h 3.30000 v 64.00000 h -3.30000 z M 316.80000 0.00000 h 4.95000 v 64.00000 h -4.95000 z M 323.40000 0.00000 h 1.65000 v 64.00000 h -1.65000 z M 326.70000 0.00000 h 3.30000 v 64.00000 h -3.30000 z " style="fill: #0F172A"/><text style="fill: #000000; font-family: &quot;monospace&quot;; font-size: 12.80000px" x="0.00000" y="0.00000"></text></svg>
<text x="618.0" y="1036.0" font-family="Arial, sans-serif" font-size="16" letter-spacing="2" fill="#0F172A">FT-TINGI-ASUKAL</text>
<rect x="48" y="1076" width="520" height="170" rx="14" fill="#FFFFFF" stroke="#CBD5E1"/>
<text x="66" y="1106" font-family="Arial, sans-serif" font-size="18" font-weight="700" fill="#0F172A">Mantika Tingi 100ml</text>
<text x="66" y="1130" font-family="Arial, sans-serif" font-size="13" fill="#64748B">FT-TINGI-MANTIKA</text>
<svg x="66.0" y="1148.0" width="330.0" height="64.0" viewBox="0.00000 0.00000 330.00000 64.00000" xmlns="http://www.w3.org/2000/svg"><path d="M 0.00000 0.00000 h 3.12796 v 64.00000 h -3.12796 z M 4.69194 0.00000 h 1.56398 v 64.00000 h -1.56398 z M 12.51185 0.00000 h 1.56398 v 64.00000 h -1.56398 z M 17.20379 0.00000 h 1.56398 v 64.00000 h -1.56398 z M 23.45972 0.00000 h 3.12796 v 64.00000 h -3.12796 z M 31.27962 0.00000 h 1.56398 v 64.00000 h -1.56398 z M 34.40758 0.00000 h 3.12796 v 64.00000 h -3.12796 z M 39.09953 0.00000 h 4.69194 v 64.00000 h -4.69194 z M 48.48341 0.00000 h 1.56398 v 64.00000 h -1.56398 z M 51.61137 0.00000 h 1.56398 v 64.00000 h -1.56398 z M 56.30332 0.00000 h 3.12796 v 64.00000 h -3.12796 z M 60.99526 0.00000 h 4.69194 v 64.00000 h -4.69194 z M 68.81517 0.00000 h 3.12796 v 64.00000 h -3.12796 z M 73.50711 0.00000 h 4.69194 v 64.00000 h -4.69194 z M 82.89100 0.00000 h 1.56398 v 64.00000 h -1.56398 z M 86.01896 0.00000 h 3.12796 v 64.00000 h -3.12796 z M 93.83886 0.00000 h 1.56398 v 64.00000 h -1.56398 z M 100.09479 0.00000 h 1.56398 v 64.00000 h -1.56398 z M 103.22275 0.00000 h 1.56398 v 64.00000 h -1.56398 z M 106.35071 0.00000 h 4.69194 v 64.00000 h -4.69194 z M 115.73460 0.00000 h 3.12796 v 64.00000 h -3.12796 z M 120.42654 0.00000 h 3.12796 v 64.00000 h -3.12796 z M 125.11848 0.00000 h 1.56398 v 64.00000 h -1.56398 z M 131.37441 0.00000 h 1.56398 v 64.00000 h -1.56398 z M 137.63033 0.00000 h 3.12796 v 64.00000 h -3.12796 z M 145.45024 0.00000 h 1.56398 v 64.00000 h -1.56398 z M 151.70616 0.00000 h 1.56398 v 64.00000 h -1.56398 z M 154.83412 0.00000 h 1.56398 v 64.00000 h -1.56398 z M 159.52607 0.00000 h 3.12796 v 64.00000 h -3.12796 z M 164.21801 0.00000 h 4.69194 v 64.00000 h -4.69194 z M 172.03791 0.00000 h 1.56398 v 64.00000 h -1.56398 z M 175.16588 0.00000 h 4.69194 v 64.00000 h -4.69194 z M 181.42180 0.00000 h 3.12796 v 64.00000 h -3.12796 z M 189.24171 0.00000 h 1.56398 v 64.00000 h -1.56398 z M 192.36967 0.00000 h 1.56398 v 64.00000 h -1.56398 z M 198.62559 0.00000 h 3.12796 v 64.00000 h -3.12796 z M 206.44550 0.00000 h 1.56398 v 64.00000 h -1.56398 z M 209.57346 0.00000 h 4.69194 v 64.00000 h -4.69194 z M 218.95735 0.00000 h 3.12796 v 64.00000 h -3.12796 z M 223.64929 0.00000 h 3.12796 v 64.00000 h -3.12796 z M 228.34123 0.00000 h 4.69194 v 64.00000 h -4.69194 z M 237.72512 0.00000 h 1.56398 v 64.00000 h -1.56398 z M 240.85308 0.00000 h 3.12796 v 64.00000 h -3.12796 z M 248.67299 0.00000 h 1.56398 v 64.00000 h -1.56398 z M 254.92891 0.00000 h 1.56398 v 64.00000 h -1.56398 z M 258.05687 0.00000 h 1.56398 v 64.00000 h -1.56398 z M 261.18483 0.00000 h 3.12796 v 64.00000 h -3.12796 z M 269.00474 0.00000 h 4.69194 v 64.00000 h -4.69194 z M 275.26066 0.00000 h 1.56398 v 64.00000 h -1.56398 z M 278.38863 0.00000 h 1.56398 v 64.00000 h -1.56398 z M 284.64455 0.00000 h 3.12796 v 64.00000 h -3.12796 z M 292.46445 0.00000 h 3.12796 v 64.00000 h -3.12796 z M 298.72038 0.00000 h 1.56398 v 64.00000 h -1.56398 z M 303.41232 0.00000 h 4.69194 v 64.00000 h -4.69194 z M 309.66825 0.00000 h 3.12796 v 64.00000 h -3.12796 z M 317.48815 0.00000 h 4.69194 v 64.00000 h -4.69194 z M 323.74408 0.00000 h 1.56398 v 64.00000 h -1.56398 z M 326.87204 0.00000 h 3.12796 v 64.00000 h -3.12796 z " style="fill: #0F172A"/><text style="fill: #000000; font-family: &quot;monospace&quot;; font-size: 12.80000px" x="0.00000" y="0.00000"></text></svg>
<text x="66.0" y="1234.0" font-family="Arial, sans-serif" font-size="16" letter-spacing="2" fill="#0F172A">FT-TINGI-MANTIKA</text>
<rect x="600" y="1076" width="520" height="170" rx="14" fill="#FFFFFF" stroke="#CBD5E1"/>
<text x="618" y="1106" font-family="Arial, sans-serif" font-size="18" font-weight="700" fill="#0F172A">Bigas Tingi 1 kilo</text>
<text x="618" y="1130" font-family="Arial, sans-serif" font-size="13" fill="#64748B">FT-TINGI-BIGAS</text>
<svg x="618.0" y="1148.0" width="330.0" height="64.0" viewBox="0.00000 0.00000 330.00000 64.00000" xmlns="http://www.w3.org/2000/svg"><path d="M 0.00000 0.00000 h 3.49206 v 64.00000 h -3.49206 z M 5.23810 0.00000 h 1.74603 v 64.00000 h -1.74603 z M 13.96825 0.00000 h 1.74603 v 64.00000 h -1.74603 z M 19.20635 0.00000 h 1.74603 v 64.00000 h -1.74603 z M 26.19048 0.00000 h 3.49206 v 64.00000 h -3.49206 z M 34.92063 0.00000 h 1.74603 v 64.00000 h -1.74603 z M 38.41270 0.00000 h 3.49206 v 64.00000 h -3.49206 z M 43.65079 0.00000 h 5.23810 v 64.00000 h -5.23810 z M 54.12698 0.00000 h 1.74603 v 64.00000 h -1.74603 z M 57.61905 0.00000 h 1.74603 v 64.00000 h -1.74603 z M 62.85714 0.00000 h 3.49206 v 64.00000 h -3.49206 z M 68.09524 0.00000 h 5.23810 v 64.00000 h -5.23810 z M 76.82540 0.00000 h 3.49206 v 64.00000 h -3.49206 z M 82.06349 0.00000 h 5.23810 v 64.00000 h -5.23810 z M 92.53968 0.00000 h 1.74603 v 64.00000 h -1.74603 z M 96.03175 0.00000 h 3.49206 v 64.00000 h -3.49206 z M 104.76190 0.00000 h 1.74603 v 64.00000 h -1.74603 z M 111.74603 0.00000 h 1.74603 v 64.00000 h -1.74603 z M 115.23810 0.00000 h 1.74603 v 64.00000 h -1.74603 z M 118.73016 0.00000 h 5.23810 v 64.00000 h -5.23810 z M 129.20635 0.00000 h 3.49206 v 64.00000 h -3.49206 z M 134.44444 0.00000 h 3.49206 v 64.00000 h -3.49206 z M 139.68254 0.00000 h 1.74603 v 64.00000 h -1.74603 z M 146.66667 0.00000 h 1.74603 v 64.00000 h -1.74603 z M 153.65079 0.00000 h 3.49206 v 64.00000 h -3.49206 z M 162.38095 0.00000 h 1.74603 v 64.00000 h -1.74603 z M 169.36508 0.00000 h 1.74603 v 64.00000 h -1.74603 z M 172.85714 0.00000 h 1.74603 v 64.00000 h -1.74603 z M 178.09524 0.00000 h 3.49206 v 64.00000 h -3.49206 z M 183.33333 0.00000 h 5.23810 v 64.00000 h -5.23810 z M 192.06349 0.00000 h 1.74603 v 64.00000 h -1.74603 z M 199.04762 0.00000 h 1.74603 v 64.00000 h -1.74603 z M 202.53968 0.00000 h 3.49206 v 64.00000 h -3.49206 z M 211.26984 0.00000 h 3.49206 v 64.00000 h -3.49206 z M 220.00000 0.00000 h 1.74603 v 64.00000 h -1.74603 z M 226.98413 0.00000 h 1.74603 v 64.00000 h -1.74603 z M 230.47619 0.00000 h 3.49206 v 64.00000 h -3.49206 z M 235.71429 0.00000 h 1.74603 v 64.00000 h -1.74603 z M 242.69841 0.00000 h 1.74603 v 64.00000 h -1.74603 z M 249.68254 0.00000 h 1.74603 v 64.00000 h -1.74603 z M 253.17460 0.00000 h 1.74603 v 64.00000 h -1.74603 z M 260.15873 0.00000 h 3.49206 v 64.00000 h -3.49206 z M 268.88889 0.00000 h 3.49206 v 64.00000 h -3.49206 z M 274.12698 0.00000 h 5.23810 v 64.00000 h -5.23810 z M 281.11111 0.00000 h 1.74603 v 64.00000 h -1.74603 z M 288.09524 0.00000 h 3.49206 v 64.00000 h -3.49206 z M 295.07937 0.00000 h 1.74603 v 64.00000 h -1.74603 z M 298.57143 0.00000 h 1.74603 v 64.00000 h -1.74603 z M 307.30159 0.00000 h 3.49206 v 64.00000 h -3.49206 z M 316.03175 0.00000 h 5.23810 v 64.00000 h -5.23810 z M 323.01587 0.00000 h 1.74603 v 64.00000 h -1.74603 z M 326.50794 0.00000 h 3.49206 v 64.00000 h -3.49206 z " style="fill: #0F172A"/><text style="fill: #000000; font-family: &quot;monospace&quot;; font-size: 12.80000px" x="0.00000" y="0.00000"></text></svg>
<text x="618.0" y="1234.0" font-family="Arial, sans-serif" font-size="16" letter-spacing="2" fill="#0F172A">FT-TINGI-BIGAS</text>
</svg>
